<svg width="33" height="147" viewBox="0 0 33 147" fill="none" xmlns="http://www.w3.org/2000/svg">
<rect width="193.596" height="3.89" transform="matrix(0.870983 0.491313 -0.606392 0.795166 33.9838 48.2103)" fill="#FF9393"/>
<rect width="193.596" height="3.89" transform="matrix(0.870983 0.491313 -0.606392 0.795166 11.2777 69.3105)" fill="#FF9393"/>
<rect width="193.596" height="3.89" transform="matrix(0.870983 0.491313 -0.606392 0.795166 17.2069 61.5353)" fill="#FF9393"/>
<rect width="193.596" height="3.89" transform="matrix(0.870983 0.491313 -0.606392 0.795166 23.1361 53.7603)" fill="#FF9393"/>
<rect width="193.596" height="3.89" transform="matrix(0.870983 0.491313 -0.606392 0.795166 5.34839 77.0855)" fill="#FF9393"/>
<rect width="193.596" height="3.89" transform="matrix(0.870983 0.491313 -0.606392 0.795166 -0.580933 84.8606)" fill="#FF9393"/>
<rect width="193.596" height="3.89" transform="matrix(0.870983 0.491313 -0.606392 0.795166 -6.51013 92.6357)" fill="#FF9393"/>
<rect width="193.596" height="3.89" transform="matrix(0.870983 0.491313 -0.606392 0.795166 -12.4395 100.411)" fill="#FF9393"/>
</svg>
